<svg width="40" height="41" viewBox="0 0 40 41" fill="none" xmlns="http://www.w3.org/2000/svg">
<path id="Vector" d="M20.7455 2.01667H21.5642C18.8879 4.50356 17.1675 7.84968 16.7023 11.4734C16.2371 15.0971 17.0564 18.7692 19.0178 21.8515C20.9793 24.9338 23.9587 27.2313 27.4384 28.3447C30.9181 29.4581 34.6778 29.317 38.0642 27.9458C36.7616 31.0802 34.6325 33.8022 31.9042 35.8214C29.1759 37.8406 25.9506 39.0813 22.5724 39.4112C19.1942 39.7411 15.7898 39.1478 12.7223 37.6946C9.65489 36.2413 7.03946 33.9827 5.15504 31.1596C3.27061 28.3365 2.18787 25.0548 2.02232 21.6645C1.85677 18.2743 2.61461 14.9027 4.215 11.9094C5.81539 8.91611 8.19831 6.41338 11.1096 4.66819C14.0208 2.92301 17.3512 2.00082 20.7455 2V2.01667Z" stroke="white" stroke-width="3" stroke-linecap="round" stroke-linejoin="round"/>
</svg>
