<svg width="55" height="55" viewBox="0 0 55 55" fill="none" xmlns="http://www.w3.org/2000/svg">
<g id="circum:linkedin">
<path id="Vector" d="M42.2583 7.01251H12.7416C11.2235 7.01675 9.76867 7.62171 8.69516 8.69522C7.62165 9.76873 7.01668 11.2235 7.01245 12.7417V42.2584C7.01668 43.7765 7.62165 45.2313 8.69516 46.3048C9.76867 47.3783 11.2235 47.9833 12.7416 47.9875H42.2583C43.7778 47.9875 45.235 47.3839 46.3094 46.3095C47.3839 45.2351 47.9875 43.7778 47.9875 42.2584V12.7417C47.9875 11.2222 47.3839 9.76497 46.3094 8.69055C45.235 7.61612 43.7778 7.01251 42.2583 7.01251ZM45.6958 42.2584C45.6892 43.168 45.3249 44.0385 44.6817 44.6817C44.0384 45.325 43.1679 45.6893 42.2583 45.6959H12.7416C11.832 45.6893 10.9615 45.325 10.3182 44.6817C9.675 44.0385 9.31072 43.168 9.30412 42.2584V12.7417C9.31072 11.832 9.675 10.9615 10.3182 10.3183C10.9615 9.67506 11.832 9.31078 12.7416 9.30418H42.2583C43.1679 9.31078 44.0384 9.67506 44.6817 10.3183C45.3249 10.9615 45.6892 11.832 45.6958 12.7417V42.2584Z" fill="white"/>
<path id="Vector_2" d="M14.6116 24.6308C14.6116 24.0231 14.853 23.4402 15.2828 23.0104C15.7126 22.5806 16.2955 22.3392 16.9032 22.3392C17.511 22.3392 18.0939 22.5806 18.5237 23.0104C18.9535 23.4402 19.1949 24.0231 19.1949 24.6308V39.5267C19.1949 40.1345 18.9535 40.7174 18.5237 41.1471C18.0939 41.5769 17.511 41.8183 16.9032 41.8183C16.2955 41.8183 15.7126 41.5769 15.2828 41.1471C14.853 40.7174 14.6116 40.1345 14.6116 39.5267V24.6308Z" fill="white"/>
<path id="Vector_3" d="M16.9032 17.7467C18.1689 17.7467 19.1949 16.7206 19.1949 15.455C19.1949 14.1893 18.1689 13.1633 16.9032 13.1633C15.6376 13.1633 14.6116 14.1893 14.6116 15.455C14.6116 16.7206 15.6376 17.7467 16.9032 17.7467Z" fill="white"/>
<path id="Vector_4" d="M40.3791 30.6396V39.5313C40.3791 40.1391 40.1376 40.7219 39.7078 41.1517C39.2781 41.5815 38.6952 41.8229 38.0874 41.8229C37.4796 41.8229 36.8967 41.5815 36.4669 41.1517C36.0372 40.7219 35.7957 40.1391 35.7957 39.5313V30.6396C35.7957 29.658 35.4058 28.7166 34.7117 28.0226C34.0176 27.3285 33.0763 26.9386 32.0947 26.9386C31.1131 26.9386 30.1717 27.3285 29.4776 28.0226C28.7836 28.7166 28.3936 29.658 28.3936 30.6396V39.5313C28.3936 40.1391 28.1522 40.7219 27.7224 41.1517C27.2927 41.5815 26.7098 41.8229 26.102 41.8229C25.4942 41.8229 24.9113 41.5815 24.4815 41.1517C24.0517 40.7219 23.8103 40.1391 23.8103 39.5313V24.6354C23.8198 24.0306 24.0642 23.4532 24.492 23.0254C24.9197 22.5977 25.4971 22.3532 26.102 22.3438C26.4901 22.3331 26.8739 22.4276 27.2128 22.6172C27.5517 22.8068 27.833 23.0845 28.027 23.4208C29.287 22.7059 30.7127 22.3345 32.1613 22.3438C33.61 22.353 35.0308 22.7426 36.2816 23.4736C37.5323 24.2046 38.5691 25.2512 39.2882 26.5089C40.0073 27.7665 40.3835 29.1909 40.3791 30.6396Z" fill="white"/>
</g>
</svg>
