<svg width="51" height="50" viewBox="0 0 51 50" fill="none" xmlns="http://www.w3.org/2000/svg">
<g id="teenyicons:github-outline" clip-path="url(#clip0_6_316)">
<path id="Vector" d="M19.3334 41.59C19.7551 41.4574 20.1068 41.1627 20.3112 40.7708C20.5156 40.3788 20.556 39.9217 20.4234 39.5C20.2908 39.0783 19.9961 38.7266 19.6041 38.5222C19.2122 38.3177 18.7551 38.2774 18.3334 38.41L19.3334 41.59ZM7.17338 31.7233L5.56005 31.2967L4.71338 34.5233L6.32671 34.9467L7.17338 31.72V31.7233ZM30.5 48.3333V50H33.8334V48.3333H30.5ZM30.71 32.29L30.53 30.6333C30.2168 30.6669 29.9195 30.7885 29.6726 30.9842C29.4257 31.1798 29.2393 31.4414 29.1349 31.7386C29.0306 32.0359 29.0127 32.3566 29.0832 32.6636C29.1537 32.9707 29.3098 33.2514 29.5334 33.4733L30.7067 32.2933L30.71 32.29ZM42.1667 19.71H43.8334V19.7L42.1667 19.71ZM39.39 13.02L37.8367 12.42C37.7205 12.7205 37.694 13.0483 37.7602 13.3636C37.8265 13.679 37.9827 13.9683 38.21 14.1967L39.39 13.02ZM39.2234 6.29667L40.7434 5.61667C40.6439 5.39511 40.4972 5.19796 40.3135 5.03905C40.1298 4.88013 39.9136 4.76328 39.68 4.69667L39.2234 6.29667ZM31.98 8.93667L31.56 10.55C31.7839 10.6085 32.0174 10.6197 32.2458 10.583C32.4742 10.5462 32.6925 10.4624 32.8867 10.3367L31.98 8.93667ZM19.02 8.93667L18.1134 10.3367C18.3076 10.4624 18.5259 10.5462 18.7543 10.583C18.9827 10.6197 19.2162 10.6085 19.44 10.55L19.02 8.93667ZM11.7767 6.3L11.32 4.7C11.0859 4.76618 10.869 4.88284 10.6847 5.04178C10.5005 5.20072 10.3532 5.39808 10.2534 5.62L11.7767 6.3ZM11.61 13.0233L12.79 14.2C13.018 13.9714 13.1746 13.6814 13.2409 13.3654C13.3072 13.0494 13.2802 12.721 13.1634 12.42L11.61 13.0233ZM8.83338 19.7667H10.5V19.76L8.83338 19.7667ZM20.2934 32.2933L21.4667 33.4767C21.6887 33.2559 21.8441 32.977 21.915 32.6721C21.9858 32.3671 21.9694 32.0483 21.8674 31.7522C21.7655 31.4562 21.5822 31.1948 21.3386 30.9981C21.095 30.8014 20.8009 30.6773 20.49 30.64L20.29 32.2933H20.2934ZM18.8334 36.6667H20.5L20.4967 36.5433L18.8334 36.6667ZM17.1667 48.3333V50H20.5V48.3333H17.1667ZM18.3334 38.41C16.3234 39.0433 15.0467 38.9733 14.2 38.6933C13.3634 38.4167 12.72 37.86 12.1034 37.06C11.781 36.6288 11.4806 36.1815 11.2034 35.72C10.92 35.2567 10.5967 34.7133 10.27 34.23C9.63338 33.2933 8.69338 32.12 7.17338 31.72L6.32671 34.9467C6.59338 35.0133 6.94005 35.2633 7.51005 36.1C7.78338 36.5067 8.04338 36.94 8.37005 37.4733C8.68338 37.98 9.04338 38.54 9.46005 39.0867C10.3034 40.1867 11.4534 41.2967 13.16 41.86C14.86 42.42 16.88 42.36 19.3334 41.59L18.3334 38.41ZM33.8334 36.46C33.8334 35.4 33.7867 34.4333 33.4867 33.5333C33.1667 32.5733 32.6134 31.8333 31.8834 31.11L29.5334 33.4767C30.05 33.9867 30.2267 34.2933 30.3234 34.5867C30.44 34.9367 30.5 35.4333 30.5 36.46H33.8334ZM30.8867 33.95C33.8967 33.6267 37.18 32.8667 39.71 30.6767C42.31 28.4267 43.8334 24.9133 43.8334 19.71H40.5C40.5 24.24 39.2 26.71 37.5267 28.1567C35.78 29.67 33.3334 30.3333 30.53 30.6333L30.8867 33.95ZM43.8334 19.7C43.8235 16.7518 42.6494 13.9268 40.5667 11.84L38.21 14.1967C39.67 15.6633 40.4934 17.64 40.5 19.71L43.8334 19.7ZM40.9434 13.62C41.4434 12.34 41.6767 10.9733 41.6434 9.59667L38.31 9.68C38.3344 10.6134 38.1735 11.5424 37.8367 12.4133L40.9434 13.62ZM41.6434 9.59667C41.6097 8.22245 41.3038 6.87189 40.7434 5.61667L37.7 6.97334C38.0834 7.82667 38.2867 8.74667 38.31 9.68L41.6434 9.59667ZM39.2234 6.29667C39.68 4.69334 39.68 4.69 39.6767 4.69H39.6667L39.6534 4.68334C39.6203 4.67445 39.587 4.66667 39.5534 4.66C39.3205 4.61342 39.0841 4.58666 38.8467 4.58C38.2749 4.57266 37.7043 4.63308 37.1467 4.76C35.73 5.06334 33.7334 5.81667 31.08 7.53334L32.8867 10.3333C35.2834 8.78667 36.9067 8.22 37.8467 8.02C38.181 7.94307 38.5238 7.90946 38.8667 7.92L38.84 7.91667C38.8289 7.91465 38.8178 7.91243 38.8067 7.91L38.7867 7.90334H38.7767L38.77 7.9C38.7667 7.9 38.7634 7.9 39.2234 6.29334V6.29667ZM32.4 7.32C27.8756 6.14101 23.1245 6.14101 18.6 7.32L19.44 10.55C23.4137 9.51444 27.5864 9.51444 31.56 10.55L32.4 7.32ZM19.9234 7.53334C17.2667 5.82 15.2667 5.06667 13.85 4.76667C13.2924 4.64081 12.7217 4.5815 12.15 4.59C11.8797 4.59737 11.6106 4.63086 11.3467 4.69L11.3334 4.69667H11.3234L11.7767 6.3L12.2334 7.90334L12.2234 7.90667L12.2134 7.91C12.1957 7.9149 12.1779 7.91934 12.16 7.92334C12.494 7.9147 12.8278 7.95164 13.1534 8.02667C14.0934 8.22667 15.7167 8.79 18.1134 10.3367L19.9234 7.54V7.53334ZM10.2567 5.61334C9.69641 6.86859 9.39051 8.22246 9.35671 9.59667L12.69 9.68C12.7098 8.74601 12.9173 7.82553 13.3 6.97334L10.2567 5.61334ZM9.35671 9.59667C9.32338 10.9733 9.55671 12.34 10.0567 13.62L13.1634 12.4133C12.8254 11.5427 12.6634 10.6137 12.6867 9.68L9.35338 9.59667H9.35671ZM10.43 11.84C9.3921 12.8813 8.56974 14.1171 8.01005 15.4767L11.09 16.7433C11.4834 15.7933 12.0634 14.9267 12.79 14.1933L10.43 11.84ZM8.01005 15.4767C7.44934 16.8372 7.16275 18.2951 7.16671 19.7667L10.5 19.76C10.5 18.7267 10.7 17.7033 11.09 16.75L8.01005 15.4833V15.4767ZM7.16671 19.7667C7.16671 24.9433 8.69338 28.4233 11.2967 30.66C13.82 32.8267 17.0967 33.5933 20.0967 33.95L20.49 30.64C17.6667 30.3 15.22 29.6333 13.4667 28.1267C11.7934 26.69 10.5 24.2533 10.5 19.76H7.16671V19.7667ZM19.1167 31.1133C17.45 32.7733 17.02 34.7467 17.17 36.7933L20.4967 36.5433C20.3967 35.1833 20.6734 34.2667 21.47 33.4733L19.12 31.11L19.1167 31.1133ZM17.1667 36.6667V48.3333H20.5V36.6667H17.1667ZM33.8334 48.3333V43.3333H30.5V48.3333H33.8334ZM33.8334 43.3333V36.46H30.5V43.3333H33.8334Z" fill="white"/>
</g>
<defs>
<clipPath id="clip0_6_316">
<rect width="50" height="50" fill="white" transform="translate(0.5)"/>
</clipPath>
</defs>
</svg>
