<svg width="400" height="397" viewBox="0 0 400 397" fill="none" xmlns="http://www.w3.org/2000/svg">
<rect x="0.639648" width="398.64" height="396.8" fill="white"/>
<path d="M75.8024 270.017H124.138V292.596H46.3809V150.608H75.8024V270.017Z" fill="black"/>
<path d="M230.501 231.23H154.29V305H230.501V231.23Z" fill="white"/>
<path d="M158.102 305C198.088 305 230.503 273.624 230.503 234.919C230.503 196.214 198.088 164.838 158.102 164.838C118.116 164.838 85.7012 196.214 85.7012 234.919C85.7012 273.624 118.116 305 158.102 305Z" fill="white"/>
<path d="M73.3677 122.318C75.869 122.834 77.8783 124.044 79.3955 125.949C80.9127 127.815 81.6713 129.958 81.6713 132.379C81.6713 135.872 80.4002 138.651 77.8578 140.715C75.3565 142.739 71.8505 143.751 67.3399 143.751H47.2266V101.956H66.6633C71.0509 101.956 74.4748 102.928 76.9352 104.873C79.4365 106.818 80.6872 109.457 80.6872 112.791C80.6872 115.252 80.0106 117.297 78.6574 118.924C77.3452 120.551 75.582 121.682 73.3677 122.318ZM57.7445 118.864H64.6335C66.3557 118.864 67.6679 118.507 68.57 117.793C69.5132 117.039 69.9847 115.947 69.9847 114.518C69.9847 113.089 69.5132 111.998 68.57 111.243C67.6679 110.489 66.3557 110.112 64.6335 110.112H57.7445V118.864ZM65.4946 135.535C67.2578 135.535 68.611 135.158 69.5542 134.404C70.5383 133.61 71.0304 132.479 71.0304 131.01C71.0304 129.542 70.5178 128.39 69.4927 127.557C68.5085 126.723 67.1348 126.307 65.3716 126.307H57.7445V135.535H65.4946ZM121.663 110.529V143.751H111.145V139.226C110.079 140.695 108.623 141.886 106.778 142.799C104.974 143.672 102.964 144.108 100.75 144.108C98.1256 144.108 95.8088 143.553 93.7995 142.441C91.7903 141.29 90.232 139.643 89.1249 137.5C88.0177 135.356 87.4642 132.836 87.4642 129.938V110.529H97.9206V128.569C97.9206 130.792 98.5152 132.518 99.7044 133.749C100.894 134.979 102.493 135.595 104.502 135.595C106.552 135.595 108.172 134.979 109.361 133.749C110.55 132.518 111.145 130.792 111.145 128.569V110.529H121.663ZM143.18 144.228C140.187 144.228 137.522 143.731 135.184 142.739C132.847 141.747 131.002 140.397 129.649 138.691C128.295 136.944 127.537 134.999 127.373 132.856H137.768C137.891 134.007 138.444 134.94 139.428 135.654C140.412 136.369 141.622 136.726 143.057 136.726C144.37 136.726 145.374 136.488 146.071 136.011C146.809 135.495 147.178 134.84 147.178 134.047C147.178 133.094 146.666 132.399 145.641 131.963C144.616 131.486 142.955 130.97 140.659 130.415C138.198 129.859 136.148 129.284 134.508 128.688C132.867 128.053 131.453 127.081 130.264 125.771C129.074 124.421 128.48 122.615 128.48 120.353C128.48 118.448 129.013 116.721 130.079 115.173C131.186 113.585 132.785 112.335 134.877 111.422C137.009 110.509 139.531 110.053 142.442 110.053C146.748 110.053 150.131 111.085 152.591 113.149C155.093 115.213 156.528 117.951 156.897 121.365H147.178C147.014 120.214 146.481 119.301 145.579 118.626C144.718 117.951 143.57 117.614 142.135 117.614C140.905 117.614 139.961 117.852 139.305 118.329C138.649 118.765 138.321 119.38 138.321 120.174C138.321 121.127 138.834 121.841 139.859 122.318C140.925 122.794 142.565 123.27 144.78 123.746C147.322 124.382 149.393 125.017 150.992 125.652C152.591 126.247 153.985 127.239 155.175 128.629C156.405 129.978 157.04 131.804 157.081 134.106C157.081 136.051 156.507 137.797 155.359 139.345C154.252 140.854 152.632 142.044 150.5 142.918C148.409 143.791 145.969 144.228 143.18 144.228ZM161.425 127.14C161.425 123.687 162.142 120.67 163.578 118.09C165.054 115.51 167.084 113.526 169.667 112.137C172.291 110.747 175.285 110.053 178.647 110.053C182.953 110.053 186.541 111.144 189.411 113.327C192.323 115.51 194.229 118.587 195.132 122.556H183.937C182.994 120.015 181.169 118.745 178.463 118.745C176.535 118.745 174.998 119.48 173.85 120.948C172.701 122.377 172.127 124.441 172.127 127.14C172.127 129.839 172.701 131.923 173.85 133.392C174.998 134.821 176.535 135.535 178.463 135.535C181.169 135.535 182.994 134.265 183.937 131.725H195.132C194.229 135.614 192.323 138.671 189.411 140.893C186.5 143.116 182.912 144.228 178.647 144.228C175.285 144.228 172.291 143.533 169.667 142.144C167.084 140.754 165.054 138.77 163.578 136.19C162.142 133.61 161.425 130.593 161.425 127.14ZM198.667 127.081C198.667 123.667 199.323 120.67 200.635 118.09C201.988 115.51 203.813 113.526 206.109 112.137C208.406 110.747 210.969 110.053 213.798 110.053C216.217 110.053 218.329 110.529 220.133 111.482C221.979 112.434 223.393 113.685 224.378 115.233V110.529H234.896V143.751H224.378V139.048C223.352 140.596 221.917 141.846 220.072 142.799C218.268 143.751 216.156 144.228 213.737 144.228C210.948 144.228 208.406 143.533 206.109 142.144C203.813 140.715 201.988 138.71 200.635 136.13C199.323 133.511 198.667 130.494 198.667 127.081ZM224.378 127.14C224.378 124.6 223.639 122.595 222.163 121.127C220.728 119.658 218.965 118.924 216.874 118.924C214.782 118.924 212.998 119.658 211.522 121.127C210.087 122.556 209.369 124.54 209.369 127.081C209.369 129.621 210.087 131.645 211.522 133.153C212.998 134.622 214.782 135.356 216.874 135.356C218.965 135.356 220.728 134.622 222.163 133.153C223.639 131.685 224.378 129.68 224.378 127.14Z" fill="#EF2E00"/>
<path d="M280.829 196.378C284.612 190.953 289.795 186.546 296.381 183.155C303.106 179.765 310.742 178.07 319.288 178.07C329.235 178.07 338.201 180.443 346.187 185.19C354.313 189.936 360.688 196.716 365.311 205.532C370.074 214.211 372.457 224.315 372.457 235.842C372.457 247.368 370.074 257.608 365.311 266.558C360.688 275.374 354.313 282.222 346.187 287.104C338.201 291.986 329.235 294.427 319.288 294.427C310.601 294.427 302.966 292.8 296.381 289.545C289.936 286.155 284.752 281.815 280.829 276.526V292.596H251.408V111.055H280.829V196.378ZM342.404 235.842C342.404 229.06 340.933 223.229 337.991 218.347C335.189 213.33 331.406 209.532 326.643 206.956C322.02 204.379 316.976 203.091 311.512 203.091C306.187 203.091 301.144 204.446 296.381 207.159C291.757 209.735 287.975 213.533 285.032 218.551C282.23 223.568 280.829 229.467 280.829 236.248C280.829 243.03 282.23 248.929 285.032 253.946C287.975 258.963 291.757 262.828 296.381 265.541C301.144 268.117 306.187 269.406 311.512 269.406C316.976 269.406 322.02 268.05 326.643 265.338C331.406 262.625 335.189 258.76 337.991 253.743C340.933 248.725 342.404 242.758 342.404 235.842Z" fill="black"/>
<path d="M165.33 291.594C203.63 291.594 234.678 259.917 234.678 220.841C234.678 181.765 203.63 150.087 165.33 150.087C127.029 150.087 95.981 181.765 95.981 220.841C95.981 259.917 127.029 291.594 165.33 291.594Z" fill="#EF2E00"/>
<path d="M234.678 216.509H160.278V291.594H234.678V216.509Z" fill="#EF2E00"/>
<path d="M164.6 177.162H164.845L164.961 177.041C186.985 177.179 204.862 195.999 204.862 219.113C204.862 226.314 202.914 233.165 199.814 239.061L199.549 239.566L200.008 239.88C200.645 240.317 201.238 240.822 201.776 241.385L213.415 253.583L213.428 253.597L213.441 253.609C214.589 254.678 215.517 255.984 216.168 257.444C216.818 258.903 217.177 260.487 217.222 262.097C217.268 263.708 216.998 265.311 216.431 266.808C215.864 268.306 215.01 269.665 213.924 270.804C212.837 271.943 211.538 272.838 210.109 273.432C208.682 274.026 207.152 274.309 205.616 274.262C204.079 274.213 202.567 273.837 201.175 273.156C199.782 272.475 198.537 271.503 197.515 270.298L197.504 270.284L197.491 270.272L185.852 258.073L185.833 258.053L185.812 258.034C185.29 257.58 184.809 257.077 184.376 256.529L184.064 256.136L183.635 256.383C178.028 259.621 171.377 261.307 164.6 261.307C142.464 261.307 124.456 242.435 124.456 219.235C124.456 196.035 142.464 177.162 164.6 177.162ZM164.6 188.119H164.355L164.238 188.242C147.848 188.379 134.794 202.145 134.794 219.356C134.794 236.654 147.978 250.471 164.484 250.471C172.188 250.471 179.316 247.614 184.551 242.626L184.582 242.597L184.609 242.564C185.043 242.017 185.523 241.513 186.045 241.057L186.067 241.04L186.086 241.019L186.089 241.017L186.092 241.013L186.095 241.009L186.099 241.005L186.102 241.003L186.105 240.999L186.108 240.995L186.112 240.993L186.114 240.989L186.118 240.986L186.121 240.983L186.125 240.979L186.127 240.976L186.131 240.972L186.134 240.968L186.138 240.964L186.141 240.962L186.145 240.957L186.148 240.953L186.152 240.95L186.155 240.946L186.159 240.942L186.163 240.938L186.166 240.936L186.168 240.932L186.172 240.928L186.176 240.925L186.179 240.922L186.182 240.919L186.185 240.915L186.189 240.912L186.191 240.909L186.195 240.905L186.198 240.901L186.202 240.899L186.204 240.895L186.208 240.891L186.211 240.888L186.215 240.885L186.217 240.881L186.221 240.878L186.224 240.875L186.226 240.871L186.23 240.868L186.234 240.864L186.237 240.861L186.24 240.858L186.243 240.854L186.247 240.85L186.25 240.848L186.253 240.844L186.256 240.84L186.26 240.838L186.262 240.834L186.266 240.83L186.269 240.828L186.273 240.824L186.275 240.821L186.279 240.817L186.282 240.813L186.286 240.809L186.289 240.807L186.293 240.802L186.296 240.798L186.3 240.794L186.303 240.791L186.307 240.788L186.309 240.785L186.313 240.781L186.316 240.778L186.319 240.775L186.322 240.772L186.325 240.768L186.328 240.765L186.332 240.762L186.334 240.759L186.338 240.755L186.341 240.751L186.345 240.749L186.347 240.745L186.351 240.741L186.354 240.739L186.357 240.735L186.36 240.731L186.364 240.727L186.367 240.725L186.37 240.721L186.373 240.718L186.377 240.714L186.38 240.711L186.383 240.708L186.386 240.704L186.39 240.701L186.392 240.698L186.396 240.694L186.399 240.69L186.403 240.688L186.405 240.684L186.409 240.68L186.412 240.677L186.416 240.674L186.418 240.67L186.422 240.667L186.425 240.663L186.429 240.661L186.431 240.657L186.435 240.654L186.442 240.646L186.449 240.638C191.443 235.031 194.289 227.437 194.289 219.235C194.289 201.937 181.105 188.119 164.6 188.119Z" fill="white" stroke="white"/>
</svg>
