<svg width="235" height="235" viewBox="0 0 235 235" fill="none" xmlns="http://www.w3.org/2000/svg">
<rect width="235" height="235" fill="#81627E"/>
<path d="M30.312 108.344C30.2267 109.155 30.1627 109.944 30.12 110.712C30.0987 111.459 30.088 112.035 30.088 112.44C30.088 112.952 30.0987 113.432 30.12 113.88C30.1413 114.328 30.1627 114.723 30.184 115.064H29.448C29.2987 113.571 29.096 112.397 28.84 111.544C28.584 110.669 28.136 110.04 27.496 109.656C26.856 109.272 25.864 109.08 24.52 109.08H22.504C21.7787 109.08 21.224 109.144 20.84 109.272C20.4773 109.379 20.232 109.624 20.104 110.008C19.976 110.371 19.912 110.947 19.912 111.736V127.608C19.912 128.376 19.9867 128.952 20.136 129.336C20.3067 129.72 20.6267 129.976 21.096 130.104C21.5653 130.232 22.248 130.317 23.144 130.36V131C22.5893 130.957 21.8853 130.936 21.032 130.936C20.1787 130.915 19.3147 130.904 18.44 130.904C17.608 130.904 16.8293 130.915 16.104 130.936C15.3787 130.936 14.792 130.957 14.344 131V130.36C15.0693 130.317 15.6133 130.232 15.976 130.104C16.36 129.976 16.616 129.72 16.744 129.336C16.872 128.952 16.936 128.376 16.936 127.608V111.736C16.936 110.947 16.872 110.371 16.744 110.008C16.616 109.624 16.36 109.368 15.976 109.24C15.6133 109.091 15.0693 109.005 14.344 108.984V108.344C15.1333 108.365 15.9653 108.387 16.84 108.408C17.7147 108.408 18.5787 108.419 19.432 108.44C20.2853 108.44 21.0747 108.44 21.8 108.44C22.5467 108.44 23.1547 108.44 23.624 108.44C24.6053 108.44 25.7147 108.44 26.952 108.44C28.2107 108.419 29.3307 108.387 30.312 108.344ZM25.352 119.608C25.352 119.608 25.352 119.715 25.352 119.928C25.352 120.141 25.352 120.248 25.352 120.248H18.952C18.952 120.248 18.952 120.141 18.952 119.928C18.952 119.715 18.952 119.608 18.952 119.608H25.352ZM25.96 115.384C25.8747 116.6 25.832 117.528 25.832 118.168C25.8533 118.808 25.864 119.395 25.864 119.928C25.864 120.461 25.8747 121.048 25.896 121.688C25.9173 122.328 25.9707 123.256 26.056 124.472H25.32C25.2347 123.789 25.128 123.128 25 122.488C24.8933 121.827 24.6373 121.293 24.232 120.888C23.848 120.461 23.1867 120.248 22.248 120.248V119.608C22.952 119.608 23.4853 119.469 23.848 119.192C24.232 118.893 24.5093 118.52 24.68 118.072C24.8507 117.624 24.968 117.165 25.032 116.696C25.096 116.205 25.16 115.768 25.224 115.384H25.96ZM42.0988 114.072C42.6748 114.072 43.1761 114.189 43.6028 114.424C44.0508 114.659 44.3921 114.968 44.6268 115.352C44.8828 115.715 45.0108 116.131 45.0108 116.6C45.0108 117.133 44.8401 117.603 44.4988 118.008C44.1788 118.413 43.7414 118.616 43.1868 118.616C42.7388 118.616 42.3441 118.477 42.0028 118.2C41.6614 117.901 41.4908 117.485 41.4908 116.952C41.4908 116.547 41.5974 116.205 41.8108 115.928C42.0454 115.629 42.3014 115.395 42.5788 115.224C42.4294 115.011 42.2054 114.904 41.9068 114.904C41.2454 114.904 40.6374 115.107 40.0828 115.512C39.5281 115.896 39.0588 116.397 38.6748 117.016C38.2908 117.635 37.9921 118.296 37.7788 119C37.5654 119.683 37.4588 120.323 37.4588 120.92V127.704C37.4588 128.749 37.7574 129.453 38.3548 129.816C38.9734 130.157 39.8054 130.328 40.8508 130.328V131C40.3601 130.979 39.6668 130.957 38.7708 130.936C37.8748 130.893 36.9254 130.872 35.9227 130.872C35.1974 130.872 34.4721 130.893 33.7468 130.936C33.0428 130.957 32.5094 130.979 32.1468 131V130.328C33.0214 130.328 33.6401 130.168 34.0028 129.848C34.3868 129.528 34.5788 128.92 34.5788 128.024V118.008C34.5788 117.048 34.4081 116.344 34.0668 115.896C33.7254 115.427 33.0854 115.192 32.1468 115.192V114.52C32.8294 114.584 33.4908 114.616 34.1308 114.616C34.7494 114.616 35.3361 114.584 35.8908 114.52C36.4668 114.435 36.9894 114.317 37.4588 114.168V118.168C37.6934 117.549 38.0241 116.931 38.4508 116.312C38.8988 115.672 39.4321 115.139 40.0508 114.712C40.6694 114.285 41.3521 114.072 42.0988 114.072ZM53.6118 114.072C54.9771 114.072 56.2038 114.371 57.2918 114.968C58.3798 115.565 59.2438 116.504 59.8838 117.784C60.5451 119.064 60.8758 120.728 60.8758 122.776C60.8758 124.824 60.5451 126.488 59.8838 127.768C59.2438 129.027 58.3798 129.955 57.2918 130.552C56.2038 131.149 54.9771 131.448 53.6118 131.448C52.2678 131.448 51.0411 131.149 49.9318 130.552C48.8438 129.955 47.9691 129.027 47.3078 127.768C46.6678 126.488 46.3478 124.824 46.3478 122.776C46.3478 120.728 46.6678 119.064 47.3078 117.784C47.9691 116.504 48.8438 115.565 49.9318 114.968C51.0411 114.371 52.2678 114.072 53.6118 114.072ZM53.6118 114.712C52.3958 114.712 51.3931 115.341 50.6038 116.6C49.8358 117.859 49.4518 119.917 49.4518 122.776C49.4518 125.635 49.8358 127.693 50.6038 128.952C51.3931 130.189 52.3958 130.808 53.6118 130.808C54.8278 130.808 55.8198 130.189 56.5878 128.952C57.3771 127.693 57.7718 125.635 57.7718 122.776C57.7718 119.917 57.3771 117.859 56.5878 116.6C55.8198 115.341 54.8278 114.712 53.6118 114.712ZM74.055 114.072C74.8657 114.072 75.5377 114.179 76.071 114.392C76.6257 114.605 77.0843 114.904 77.447 115.288C77.8523 115.715 78.1403 116.248 78.311 116.888C78.4817 117.528 78.567 118.392 78.567 119.48V128.024C78.567 128.92 78.7483 129.528 79.111 129.848C79.495 130.168 80.1243 130.328 80.999 130.328V131C80.6363 130.979 80.0817 130.957 79.335 130.936C78.5883 130.893 77.863 130.872 77.159 130.872C76.455 130.872 75.7617 130.893 75.079 130.936C74.4177 130.957 73.9163 130.979 73.575 131V130.328C74.343 130.328 74.887 130.168 75.207 129.848C75.527 129.528 75.687 128.92 75.687 128.024V118.776C75.687 118.115 75.6337 117.507 75.527 116.952C75.4203 116.397 75.175 115.949 74.791 115.608C74.4283 115.267 73.863 115.096 73.095 115.096C72.199 115.096 71.4097 115.352 70.727 115.864C70.0657 116.376 69.543 117.08 69.159 117.976C68.7963 118.851 68.615 119.832 68.615 120.92V128.024C68.615 128.92 68.775 129.528 69.095 129.848C69.415 130.168 69.959 130.328 70.727 130.328V131C70.3857 130.979 69.8737 130.957 69.191 130.936C68.5297 130.893 67.847 130.872 67.143 130.872C66.439 130.872 65.7137 130.893 64.967 130.936C64.2203 130.957 63.6657 130.979 63.303 131V130.328C64.1777 130.328 64.7963 130.168 65.159 129.848C65.543 129.528 65.735 128.92 65.735 128.024V118.008C65.735 117.048 65.5643 116.344 65.223 115.896C64.8817 115.427 64.2417 115.192 63.303 115.192V114.52C63.9857 114.584 64.647 114.616 65.287 114.616C65.9057 114.616 66.4923 114.584 67.047 114.52C67.623 114.435 68.1457 114.317 68.615 114.168V117.944C69.1697 116.493 69.9377 115.491 70.919 114.936C71.9217 114.36 72.967 114.072 74.055 114.072ZM87.5488 109.208V114.552H92.2848V115.192H87.5488V127.576C87.5488 128.579 87.7301 129.283 88.0928 129.688C88.4554 130.093 88.9568 130.296 89.5968 130.296C90.2368 130.296 90.7914 130.04 91.2608 129.528C91.7301 128.995 92.1354 128.109 92.4768 126.872L93.1168 127.032C92.9034 128.269 92.4768 129.315 91.8368 130.168C91.2181 131.021 90.2581 131.448 88.9568 131.448C88.2314 131.448 87.6341 131.352 87.1648 131.16C86.6954 130.989 86.2794 130.733 85.9168 130.392C85.4474 129.901 85.1168 129.315 84.9248 128.632C84.7541 127.949 84.6688 127.043 84.6688 125.912V115.192H81.5968V114.552H84.6688V109.656C85.2021 109.635 85.7141 109.592 86.2048 109.528C86.6954 109.464 87.1434 109.357 87.5488 109.208ZM106.541 121.464V123.32H94.9893V121.464H106.541ZM117.454 114.072C119.331 114.072 120.793 114.648 121.838 115.8C122.905 116.931 123.438 118.701 123.438 121.112H112.142L112.11 120.504H120.366C120.409 119.459 120.323 118.499 120.11 117.624C119.897 116.728 119.555 116.013 119.086 115.48C118.638 114.947 118.051 114.68 117.326 114.68C116.345 114.68 115.47 115.171 114.702 116.152C113.955 117.133 113.507 118.691 113.358 120.824L113.454 120.952C113.411 121.272 113.379 121.624 113.358 122.008C113.337 122.392 113.326 122.776 113.326 123.16C113.326 124.611 113.561 125.859 114.03 126.904C114.499 127.949 115.107 128.749 115.854 129.304C116.622 129.837 117.411 130.104 118.222 130.104C118.862 130.104 119.47 130.008 120.046 129.816C120.622 129.603 121.155 129.261 121.646 128.792C122.137 128.323 122.563 127.693 122.926 126.904L123.566 127.16C123.331 127.864 122.947 128.547 122.414 129.208C121.881 129.869 121.209 130.413 120.398 130.84C119.587 131.245 118.649 131.448 117.582 131.448C116.046 131.448 114.723 131.096 113.614 130.392C112.526 129.688 111.683 128.717 111.086 127.48C110.51 126.221 110.222 124.781 110.222 123.16C110.222 121.283 110.521 119.672 111.118 118.328C111.715 116.963 112.558 115.917 113.646 115.192C114.734 114.445 116.003 114.072 117.454 114.072ZM136.618 114.072C137.428 114.072 138.1 114.179 138.634 114.392C139.188 114.605 139.647 114.904 140.01 115.288C140.415 115.715 140.703 116.248 140.874 116.888C141.044 117.528 141.13 118.392 141.13 119.48V128.024C141.13 128.92 141.311 129.528 141.674 129.848C142.058 130.168 142.687 130.328 143.562 130.328V131C143.199 130.979 142.644 130.957 141.898 130.936C141.151 130.893 140.426 130.872 139.722 130.872C139.018 130.872 138.324 130.893 137.642 130.936C136.98 130.957 136.479 130.979 136.138 131V130.328C136.906 130.328 137.45 130.168 137.77 129.848C138.09 129.528 138.25 128.92 138.25 128.024V118.776C138.25 118.115 138.196 117.507 138.09 116.952C137.983 116.397 137.738 115.949 137.354 115.608C136.991 115.267 136.426 115.096 135.658 115.096C134.762 115.096 133.972 115.352 133.29 115.864C132.628 116.376 132.106 117.08 131.722 117.976C131.359 118.851 131.178 119.832 131.178 120.92V128.024C131.178 128.92 131.338 129.528 131.658 129.848C131.978 130.168 132.522 130.328 133.29 130.328V131C132.948 130.979 132.436 130.957 131.754 130.936C131.092 130.893 130.41 130.872 129.706 130.872C129.002 130.872 128.276 130.893 127.53 130.936C126.783 130.957 126.228 130.979 125.866 131V130.328C126.74 130.328 127.359 130.168 127.722 129.848C128.106 129.528 128.298 128.92 128.298 128.024V118.008C128.298 117.048 128.127 116.344 127.786 115.896C127.444 115.427 126.804 115.192 125.866 115.192V114.52C126.548 114.584 127.21 114.616 127.85 114.616C128.468 114.616 129.055 114.584 129.61 114.52C130.186 114.435 130.708 114.317 131.178 114.168V117.944C131.732 116.493 132.5 115.491 133.482 114.936C134.484 114.36 135.53 114.072 136.618 114.072ZM159.519 105.912V127.512C159.519 128.472 159.69 129.187 160.031 129.656C160.394 130.104 161.034 130.328 161.951 130.328V131C161.29 130.936 160.629 130.904 159.967 130.904C159.349 130.904 158.751 130.936 158.175 131C157.621 131.064 157.109 131.181 156.639 131.352V109.752C156.639 108.792 156.469 108.088 156.127 107.64C155.786 107.171 155.146 106.936 154.207 106.936V106.264C154.89 106.328 155.551 106.36 156.191 106.36C156.81 106.36 157.397 106.328 157.951 106.264C158.527 106.179 159.05 106.061 159.519 105.912ZM152.799 114.072C153.738 114.072 154.613 114.296 155.423 114.744C156.255 115.192 156.81 115.96 157.087 117.048L156.671 117.368C156.373 116.472 155.903 115.821 155.263 115.416C154.645 115.011 153.909 114.808 153.055 114.808C151.797 114.808 150.741 115.459 149.887 116.76C149.055 118.061 148.65 120.067 148.671 122.776C148.671 124.504 148.831 125.944 149.151 127.096C149.493 128.227 149.983 129.08 150.623 129.656C151.285 130.211 152.085 130.488 153.023 130.488C153.919 130.488 154.73 130.104 155.455 129.336C156.181 128.568 156.618 127.437 156.767 125.944L157.151 126.392C156.981 128.013 156.458 129.261 155.583 130.136C154.73 131.011 153.567 131.448 152.095 131.448C150.773 131.448 149.61 131.128 148.607 130.488C147.626 129.848 146.869 128.888 146.335 127.608C145.823 126.328 145.567 124.717 145.567 122.776C145.567 120.835 145.898 119.224 146.559 117.944C147.242 116.643 148.127 115.672 149.215 115.032C150.325 114.392 151.519 114.072 152.799 114.072Z" fill="white"/>
<rect width="235" height="47" fill="white" fill-opacity="0.29"/>
<rect y="210" width="235" height="25" fill="#745170" fill-opacity="0.66"/>
<rect x="205" y="16" width="19" height="3" rx="1.5" fill="white"/>
<rect x="205" y="22" width="19" height="3" rx="1.5" fill="white"/>
<rect x="205" y="28" width="19" height="3" rx="1.5" fill="white"/>
<circle cx="19" cy="24" r="12" fill="white" fill-opacity="0.87"/>
</svg>
