<svg width="236" height="235" viewBox="0 0 236 235" fill="none" xmlns="http://www.w3.org/2000/svg">
<rect width="235.115" height="234.77" fill="black"/>
<rect x="15" y="64" width="205" height="145" fill="white"/>
<path d="M83.192 127.992C84.2587 127.992 85.0693 128.12 85.624 128.376C86.1787 128.611 86.6693 128.877 87.096 129.176C87.352 129.325 87.5547 129.443 87.704 129.528C87.8747 129.592 88.0347 129.624 88.184 129.624C88.3973 129.624 88.5467 129.507 88.632 129.272C88.7387 129.037 88.824 128.685 88.888 128.216H89.624C89.6027 128.579 89.5707 129.016 89.528 129.528C89.5067 130.019 89.4853 130.68 89.464 131.512C89.464 132.323 89.464 133.4 89.464 134.744H88.728C88.664 133.72 88.44 132.739 88.056 131.8C87.672 130.861 87.1067 130.093 86.36 129.496C85.6347 128.899 84.6747 128.6 83.48 128.6C82.3493 128.6 81.4107 128.941 80.664 129.624C79.9387 130.307 79.576 131.203 79.576 132.312C79.576 133.272 79.8213 134.083 80.312 134.744C80.8027 135.384 81.4533 135.971 82.264 136.504C83.096 137.016 83.992 137.571 84.952 138.168C86.0613 138.851 87.0427 139.533 87.896 140.216C88.7707 140.877 89.4533 141.613 89.944 142.424C90.456 143.235 90.712 144.216 90.712 145.368C90.712 146.733 90.4027 147.864 89.784 148.76C89.1653 149.656 88.344 150.328 87.32 150.776C86.296 151.224 85.1653 151.448 83.928 151.448C82.7973 151.448 81.9013 151.32 81.24 151.064C80.5787 150.808 80.0133 150.541 79.544 150.264C79.0747 149.965 78.712 149.816 78.456 149.816C78.2427 149.816 78.0827 149.933 77.976 150.168C77.8907 150.403 77.816 150.755 77.752 151.224H77.016C77.0587 150.776 77.08 150.253 77.08 149.656C77.1013 149.037 77.112 148.237 77.112 147.256C77.1333 146.275 77.144 145.037 77.144 143.544H77.88C77.9653 144.824 78.2 146.019 78.584 147.128C78.9893 148.237 79.5973 149.133 80.408 149.816C81.24 150.477 82.3387 150.808 83.704 150.808C84.408 150.808 85.0693 150.669 85.688 150.392C86.328 150.093 86.8507 149.635 87.256 149.016C87.6613 148.376 87.864 147.555 87.864 146.552C87.864 145.677 87.6507 144.92 87.224 144.28C86.8187 143.619 86.2427 143.011 85.496 142.456C84.7493 141.88 83.8747 141.293 82.872 140.696C81.8693 140.077 80.9307 139.448 80.056 138.808C79.1813 138.168 78.4773 137.432 77.944 136.6C77.432 135.747 77.176 134.723 77.176 133.528C77.176 132.269 77.4533 131.235 78.008 130.424C78.584 129.592 79.3307 128.984 80.248 128.6C81.1653 128.195 82.1467 127.992 83.192 127.992ZM101.049 134.072C102.415 134.072 103.641 134.371 104.729 134.968C105.817 135.565 106.681 136.504 107.321 137.784C107.983 139.064 108.313 140.728 108.313 142.776C108.313 144.824 107.983 146.488 107.321 147.768C106.681 149.027 105.817 149.955 104.729 150.552C103.641 151.149 102.415 151.448 101.049 151.448C99.7053 151.448 98.4786 151.149 97.3693 150.552C96.2813 149.955 95.4066 149.027 94.7453 147.768C94.1053 146.488 93.7853 144.824 93.7853 142.776C93.7853 140.728 94.1053 139.064 94.7453 137.784C95.4066 136.504 96.2813 135.565 97.3693 134.968C98.4786 134.371 99.7053 134.072 101.049 134.072ZM101.049 134.712C99.8333 134.712 98.8306 135.341 98.0413 136.6C97.2733 137.859 96.8893 139.917 96.8893 142.776C96.8893 145.635 97.2733 147.693 98.0413 148.952C98.8306 150.189 99.8333 150.808 101.049 150.808C102.265 150.808 103.257 150.189 104.025 148.952C104.815 147.693 105.209 145.635 105.209 142.776C105.209 139.917 104.815 137.859 104.025 136.6C103.257 135.341 102.265 134.712 101.049 134.712ZM118.741 134.072C119.423 134.072 120.085 134.157 120.725 134.328C121.365 134.499 121.941 134.755 122.453 135.096C122.943 135.416 123.317 135.789 123.573 136.216C123.829 136.621 123.957 137.069 123.957 137.56C123.957 138.136 123.797 138.584 123.477 138.904C123.157 139.203 122.751 139.352 122.261 139.352C121.791 139.352 121.375 139.213 121.013 138.936C120.671 138.659 120.501 138.264 120.501 137.752C120.501 137.261 120.629 136.867 120.885 136.568C121.162 136.269 121.482 136.077 121.845 135.992C121.631 135.608 121.247 135.288 120.693 135.032C120.159 134.776 119.583 134.648 118.965 134.648C118.431 134.648 117.898 134.776 117.365 135.032C116.831 135.288 116.341 135.715 115.893 136.312C115.445 136.888 115.082 137.688 114.805 138.712C114.527 139.715 114.389 140.973 114.389 142.488C114.389 144.365 114.602 145.859 115.029 146.968C115.455 148.077 116.01 148.877 116.693 149.368C117.397 149.837 118.165 150.072 118.997 150.072C119.551 150.072 120.117 149.965 120.693 149.752C121.269 149.539 121.813 149.197 122.325 148.728C122.837 148.237 123.274 147.587 123.637 146.776L124.245 147C124.031 147.683 123.679 148.376 123.189 149.08C122.698 149.763 122.058 150.328 121.269 150.776C120.479 151.224 119.509 151.448 118.357 151.448C117.034 151.448 115.839 151.107 114.773 150.424C113.706 149.741 112.853 148.771 112.213 147.512C111.594 146.232 111.285 144.717 111.285 142.968C111.285 141.219 111.594 139.683 112.213 138.36C112.853 137.016 113.738 135.971 114.869 135.224C115.999 134.456 117.29 134.072 118.741 134.072ZM129.951 126.52C130.506 126.52 130.986 126.723 131.391 127.128C131.796 127.533 131.999 128.013 131.999 128.568C131.999 129.123 131.796 129.603 131.391 130.008C130.986 130.413 130.506 130.616 129.951 130.616C129.396 130.616 128.916 130.413 128.511 130.008C128.106 129.603 127.903 129.123 127.903 128.568C127.903 128.013 128.106 127.533 128.511 127.128C128.916 126.723 129.396 126.52 129.951 126.52ZM131.615 134.168V148.024C131.615 148.92 131.796 149.528 132.159 149.848C132.543 150.168 133.172 150.328 134.047 150.328V151C133.684 150.979 133.13 150.957 132.383 150.936C131.658 150.893 130.922 150.872 130.175 150.872C129.45 150.872 128.714 150.893 127.967 150.936C127.22 150.957 126.666 150.979 126.303 151V150.328C127.178 150.328 127.796 150.168 128.159 149.848C128.543 149.528 128.735 148.92 128.735 148.024V138.008C128.735 137.048 128.564 136.344 128.223 135.896C127.882 135.427 127.242 135.192 126.303 135.192V134.52C126.986 134.584 127.647 134.616 128.287 134.616C128.906 134.616 129.492 134.584 130.047 134.52C130.623 134.435 131.146 134.317 131.615 134.168ZM140.222 151.224C139.347 151.224 138.59 151.064 137.95 150.744C137.31 150.403 136.819 149.933 136.478 149.336C136.158 148.739 135.998 148.045 135.998 147.256C135.998 146.317 136.211 145.549 136.638 144.952C137.086 144.355 137.651 143.875 138.334 143.512C139.017 143.149 139.731 142.851 140.478 142.616C141.246 142.36 141.971 142.125 142.654 141.912C143.337 141.677 143.891 141.411 144.318 141.112C144.766 140.813 144.99 140.419 144.99 139.928V137.944C144.99 137.048 144.851 136.365 144.574 135.896C144.318 135.427 143.966 135.117 143.518 134.968C143.07 134.797 142.569 134.712 142.014 134.712C141.481 134.712 140.905 134.787 140.286 134.936C139.689 135.085 139.209 135.395 138.846 135.864C139.251 135.949 139.603 136.163 139.902 136.504C140.201 136.845 140.35 137.283 140.35 137.816C140.35 138.349 140.179 138.776 139.838 139.096C139.497 139.395 139.059 139.544 138.526 139.544C137.907 139.544 137.449 139.352 137.15 138.968C136.873 138.563 136.734 138.115 136.734 137.624C136.734 137.069 136.873 136.621 137.15 136.28C137.427 135.939 137.779 135.619 138.206 135.32C138.697 134.979 139.326 134.691 140.094 134.456C140.883 134.2 141.769 134.072 142.75 134.072C143.625 134.072 144.371 134.179 144.99 134.392C145.609 134.584 146.121 134.872 146.526 135.256C147.081 135.768 147.443 136.397 147.614 137.144C147.785 137.869 147.87 138.744 147.87 139.768V148.664C147.87 149.197 147.945 149.581 148.094 149.816C148.265 150.051 148.521 150.168 148.862 150.168C149.097 150.168 149.321 150.115 149.534 150.008C149.747 149.901 150.003 149.731 150.302 149.496L150.654 150.04C150.206 150.381 149.779 150.669 149.374 150.904C148.969 151.117 148.425 151.224 147.742 151.224C147.123 151.224 146.611 151.117 146.206 150.904C145.801 150.691 145.491 150.381 145.278 149.976C145.086 149.549 144.99 149.016 144.99 148.376C144.414 149.336 143.721 150.051 142.91 150.52C142.121 150.989 141.225 151.224 140.222 151.224ZM141.374 149.944C142.078 149.944 142.729 149.741 143.326 149.336C143.945 148.931 144.499 148.323 144.99 147.512V141.24C144.734 141.603 144.361 141.912 143.87 142.168C143.379 142.403 142.846 142.648 142.27 142.904C141.694 143.139 141.139 143.427 140.606 143.768C140.094 144.088 139.667 144.515 139.326 145.048C138.985 145.581 138.814 146.275 138.814 147.128C138.814 147.981 139.038 148.664 139.486 149.176C139.955 149.688 140.585 149.944 141.374 149.944ZM156.704 125.912V148.024C156.704 148.92 156.885 149.528 157.248 149.848C157.632 150.168 158.261 150.328 159.135 150.328V151C158.773 150.979 158.218 150.957 157.472 150.936C156.746 150.893 156.01 150.872 155.264 150.872C154.538 150.872 153.802 150.893 153.056 150.936C152.309 150.957 151.754 150.979 151.392 151V150.328C152.266 150.328 152.885 150.168 153.248 149.848C153.632 149.528 153.824 148.92 153.824 148.024V129.752C153.824 128.792 153.653 128.088 153.312 127.64C152.97 127.171 152.33 126.936 151.392 126.936V126.264C152.074 126.328 152.736 126.36 153.376 126.36C153.994 126.36 154.581 126.328 155.136 126.264C155.712 126.179 156.234 126.061 156.704 125.912Z" fill="black"/>
<circle cx="32.5" cy="30.5" r="18.5" fill="white" fill-opacity="0.87"/>
<circle cx="44" cy="44" r="5" fill="#FDFAFA"/>
<circle cx="74.5" cy="30.5" r="18.5" fill="white" fill-opacity="0.87"/>
<circle cx="116.5" cy="30.5" r="18.5" fill="white" fill-opacity="0.87"/>
<circle cx="158.5" cy="30.5" r="18.5" fill="white" fill-opacity="0.87"/>
<circle cx="200.5" cy="30.5" r="18.5" fill="white" fill-opacity="0.87"/>
<line x1="75" y1="157.5" x2="160" y2="157.5" stroke="black"/>
<circle cx="25" cy="74" r="6" fill="black"/>
</svg>
