<svg width="49" height="50" viewBox="0 0 49 50" fill="none" xmlns="http://www.w3.org/2000/svg">
<path d="M24.7455 6.01667H25.5642C22.8879 8.50356 21.1675 11.8497 20.7023 15.4734C20.2371 19.0971 21.0564 22.7692 23.0178 25.8515C24.9793 28.9338 27.9587 31.2313 31.4384 32.3447C34.9181 33.4581 38.6778 33.317 42.0642 31.9458C40.7616 35.0802 38.6325 37.8022 35.9042 39.8214C33.1759 41.8406 29.9506 43.0813 26.5724 43.4112C23.1942 43.7411 19.7898 43.1478 16.7223 41.6946C13.6549 40.2413 11.0395 37.9827 9.15504 35.1596C7.27061 32.3365 6.18787 29.0548 6.02232 25.6645C5.85677 22.2743 6.61461 18.9027 8.215 15.9094C9.81539 12.9161 12.1983 10.4134 15.1096 8.66819C18.0208 6.92301 21.3512 6.00082 24.7455 6V6.01667Z" stroke="white" stroke-width="3" stroke-linecap="round" stroke-linejoin="round"/>
</svg>
