<svg width="51" height="50" viewBox="0 0 51 50" fill="none" xmlns="http://www.w3.org/2000/svg">
<g id="carbon:email">
<path id="Vector" d="M44.25 9.375H6.75C5.9212 9.375 5.12634 9.70424 4.54029 10.2903C3.95424 10.8763 3.625 11.6712 3.625 12.5V37.5C3.625 38.3288 3.95424 39.1237 4.54029 39.7097C5.12634 40.2958 5.9212 40.625 6.75 40.625H44.25C45.0788 40.625 45.8737 40.2958 46.4597 39.7097C47.0458 39.1237 47.375 38.3288 47.375 37.5V12.5C47.375 11.6712 47.0458 10.8763 46.4597 10.2903C45.8737 9.70424 45.0788 9.375 44.25 9.375ZM40.8125 12.5L25.5 23.0938L10.1875 12.5H40.8125ZM6.75 37.5V13.9219L24.6094 26.2812C24.8709 26.4627 25.1817 26.5599 25.5 26.5599C25.8183 26.5599 26.1291 26.4627 26.3906 26.2812L44.25 13.9219V37.5H6.75Z" fill="white"/>
</g>
</svg>
