<svg width="237" height="235" viewBox="0 0 237 235" fill="none" xmlns="http://www.w3.org/2000/svg">
<rect width="235.115" height="234.77" fill="#BEE6F2"/>
<path d="M229.02 117.443C229.02 180.123 178.369 230.929 115.895 230.929C53.4203 230.929 2.76953 180.123 2.76953 117.443C2.76953 54.7643 53.4203 3.95825 115.895 3.95825C178.369 3.95825 229.02 54.7643 229.02 117.443Z" fill="#F8A420" stroke="black" stroke-width="2"/>
<path d="M162.699 180.012C162.699 180.012 176.532 182.321 181.934 179.905C188.193 177.105 196.039 164.898 196.039 164.898L189.2 161.682C189.2 161.682 184.094 169.772 180.01 171.758C177.375 173.04 170.82 172.187 170.82 172.187L162.699 180.012Z" fill="#0F0F0F" stroke="black" stroke-width="0.999999"/>
<path d="M209.457 159.938C210.135 160.325 207.726 166.59 203.335 166.291C195.673 167.245 186.764 161.403 184.058 155.188C182.464 152.857 184.207 150.549 185.909 149.342C186.401 146.123 184.828 142.726 185.859 139.602C186.953 136.29 189.158 131.915 192.218 130.829C196.269 128.466 197.654 131.755 199.834 132.355C203.989 129.692 208.298 127.373 212.268 130.362C214.027 130.945 214.166 133.267 215.685 134.225C217.608 134.164 220.401 133.711 221.579 136.047C223.665 137.832 222.97 141.113 223.208 141.83C223.985 142.563 225.85 141.973 226.483 142.8C231.216 143.819 229.159 147.42 225.806 150.209C222.504 155.139 209.457 159.938 209.457 159.938Z" fill="#F9F9F9" stroke="black" stroke-width="1.07991"/>
<path d="M185.764 146.324C185.572 146.942 186.174 147.529 186.303 148.076C186.363 148.332 186.223 148.561 186.353 148.827C186.403 148.931 186.522 149.009 186.548 149.119C186.56 149.168 186.422 149.201 186.451 149.245C186.509 149.332 186.685 149.324 186.744 149.411C186.9 149.645 186.818 149.996 186.94 150.246C187.394 151.176 187.934 151.879 188.649 152.664C188.978 153.026 189.801 153.32 190.258 153.581" fill="#F9F9F9"/>
<path d="M185.764 146.324C185.572 146.942 186.174 147.529 186.303 148.076C186.363 148.332 186.223 148.561 186.353 148.827C186.403 148.931 186.522 149.009 186.548 149.119C186.56 149.168 186.422 149.201 186.451 149.245C186.509 149.332 186.685 149.324 186.744 149.411C186.9 149.645 186.818 149.996 186.94 150.246C187.394 151.176 187.934 151.879 188.649 152.664C188.978 153.026 189.801 153.32 190.258 153.581" stroke="black" stroke-width="1.07991"/>
<path d="M210.477 159.937C209.649 160.008 208.818 160.062 207.992 160.149C207.62 160.188 207.239 160.17 206.872 160.234C206.814 160.244 206.832 160.349 206.774 160.359C206.66 160.379 206.592 160.226 206.482 160.192C206.042 160.058 205.556 160.076 205.166 159.985C204.412 159.81 203.906 159.334 203.021 159.487" fill="#F9F9F9"/>
<path d="M210.477 159.937C209.649 160.008 208.818 160.062 207.992 160.149C207.62 160.188 207.239 160.17 206.872 160.234C206.814 160.244 206.832 160.349 206.774 160.359C206.66 160.379 206.592 160.226 206.482 160.192C206.042 160.058 205.556 160.076 205.166 159.985C204.412 159.81 203.906 159.334 203.021 159.487" stroke="black" stroke-width="1.07991"/>
<path d="M220.985 135.247C220.882 135.851 221.77 136.015 222.01 136.373C222.075 136.47 221.897 136.609 221.962 136.707C222.125 136.951 222.581 137.091 222.742 137.332C222.86 137.507 222.772 137.782 222.889 137.958C222.948 138.045 223.124 138.037 223.182 138.124C223.32 138.33 223.208 138.495 223.183 138.667C223.139 138.974 223.472 138.86 223.427 139.167C223.42 139.217 223.337 139.243 223.33 139.293C223.314 139.404 223.412 139.821 223.477 139.919C223.507 139.962 223.631 139.952 223.624 140.002C223.609 140.101 223.444 140.153 223.429 140.253C223.422 140.302 223.564 140.287 223.575 140.336C223.613 140.494 223.261 140.871 223.236 141.046C223.147 141.66 222.986 142.226 222.897 142.841C222.848 143.181 221.438 144.722 221.244 144.972C221.139 145.107 219.539 147.22 219.494 147.228C219.379 147.247 219.299 147.116 219.201 147.061" fill="#F9F9F9"/>
<path d="M220.985 135.247C220.882 135.851 221.77 136.015 222.01 136.373C222.075 136.47 221.897 136.609 221.962 136.707C222.125 136.951 222.581 137.091 222.742 137.332C222.86 137.507 222.772 137.782 222.889 137.958C222.948 138.045 223.124 138.037 223.182 138.124C223.32 138.33 223.208 138.495 223.183 138.667C223.139 138.974 223.472 138.86 223.427 139.167C223.42 139.217 223.337 139.243 223.33 139.293C223.314 139.404 223.412 139.821 223.477 139.919C223.507 139.962 223.631 139.952 223.624 140.002C223.609 140.101 223.444 140.153 223.429 140.253C223.422 140.302 223.564 140.287 223.575 140.336C223.613 140.494 223.261 140.871 223.236 141.046C223.147 141.66 222.986 142.226 222.897 142.841C222.848 143.181 221.438 144.722 221.244 144.972C221.139 145.107 219.539 147.22 219.494 147.228C219.379 147.247 219.299 147.116 219.201 147.061" stroke="black" stroke-width="1.07991"/>
<path d="M212.573 130.592C212.928 131.121 214.037 131.194 214.475 131.675C214.593 131.805 214.623 132.031 214.72 132.176C214.798 132.293 215.08 132.309 215.158 132.426C215.565 133.033 215.009 132.328 215.11 132.76C215.139 132.881 215.516 133.096 215.598 133.218C215.677 133.336 215.844 134.654 215.844 134.804C215.845 134.995 215.504 135.352 215.505 135.514C215.505 135.626 215.674 135.696 215.7 135.806C215.719 135.885 215.321 136.456 215.263 136.641C215.219 136.778 215.381 136.918 215.361 137.059C215.321 137.336 214.814 137.68 214.68 137.936C213.881 139.463 212.613 140.872 211.52 142.28" fill="#F9F9F9"/>
<path d="M212.573 130.592C212.928 131.121 214.037 131.194 214.475 131.675C214.593 131.805 214.623 132.031 214.72 132.176C214.798 132.293 215.08 132.309 215.158 132.426C215.565 133.033 215.009 132.328 215.11 132.76C215.139 132.881 215.516 133.096 215.598 133.218C215.677 133.336 215.844 134.654 215.844 134.804C215.845 134.995 215.504 135.352 215.505 135.514C215.505 135.626 215.674 135.696 215.7 135.806C215.719 135.885 215.321 136.456 215.263 136.641C215.219 136.778 215.381 136.918 215.361 137.059C215.321 137.336 214.814 137.68 214.68 137.936C213.881 139.463 212.613 140.872 211.52 142.28" stroke="black" stroke-width="1.07991"/>
<path d="M201.124 131.483C200.552 131.799 200.45 132.822 199.86 133.112C199.432 133.322 199.714 133.33 199.227 133.655C199.181 133.686 199.139 133.562 199.081 133.572C198.859 133.611 198.214 134.856 198.158 135.034C198.127 135.131 197.978 135.185 197.963 135.285C197.953 135.355 197.996 135.424 198.012 135.493C197.996 135.605 197.991 135.717 197.964 135.827C198.235 136.152 197.785 136.212 197.722 136.412C197.623 136.724 197.716 137.002 197.674 137.288C197.66 137.388 197.457 137.441 197.48 137.539C197.491 137.588 197.614 137.573 197.626 137.622C197.649 137.721 197.496 137.79 197.432 137.873C197.087 138.317 196.77 138.86 196.362 139.252C195.983 139.615 195.484 139.84 195.194 140.213" fill="#F9F9F9"/>
<path d="M201.124 131.483C200.552 131.799 200.45 132.822 199.86 133.112C199.432 133.322 199.714 133.33 199.227 133.655C199.181 133.686 199.139 133.562 199.081 133.572C198.859 133.611 198.214 134.856 198.158 135.034C198.127 135.131 197.978 135.185 197.963 135.285C197.953 135.355 197.996 135.424 198.012 135.493C197.996 135.605 197.991 135.717 197.964 135.827C198.235 136.152 197.785 136.212 197.722 136.412C197.623 136.724 197.716 137.002 197.674 137.288C197.66 137.388 197.457 137.441 197.48 137.539C197.491 137.588 197.614 137.573 197.626 137.622C197.649 137.721 197.496 137.79 197.432 137.873C197.087 138.317 196.77 138.86 196.362 139.252C195.983 139.615 195.484 139.84 195.194 140.213" stroke="black" stroke-width="1.07991"/>
<path d="M193.669 138.034C194.438 138.171 195.143 138.326 195.911 138.407C196.027 138.419 196.087 138.561 196.203 138.574C196.613 138.617 196.393 138.324 196.641 138.281C196.699 138.271 196.739 138.337 196.788 138.364C196.901 138.309 197.015 138.253 197.128 138.197" fill="#F9F9F9"/>
<path d="M193.669 138.034C194.438 138.171 195.143 138.326 195.911 138.407C196.027 138.419 196.087 138.561 196.203 138.574C196.613 138.617 196.393 138.324 196.641 138.281C196.699 138.271 196.739 138.337 196.788 138.364C196.901 138.309 197.015 138.253 197.128 138.197" stroke="black" stroke-width="1.07991"/>
<path d="M118.381 198.802C151.598 198.802 178.527 174.368 178.527 144.227C178.527 114.086 151.598 89.6516 118.381 89.6516C85.1628 89.6516 58.2344 114.086 58.2344 144.227C58.2344 174.368 85.1628 198.802 118.381 198.802Z" fill="white" stroke="black" stroke-width="1.14304"/>
<path d="M70.3682 111.563L92.4224 103.659L108.672 90.9397C94.697 91.1981 81.6659 98.4951 70.3682 111.563Z" fill="black" stroke="black" stroke-width="0.999999"/>
<path d="M137.633 92.5449L151.091 108.292L171.799 119.112C165.679 107.552 154.104 98.6724 137.633 92.5449Z" fill="black" stroke="black" stroke-width="0.999999"/>
<path d="M114.736 169.533L91.6012 147.523L105.32 118.649L136.933 122.815L142.752 154.263L114.736 169.533Z" fill="black" stroke="black" stroke-width="0.999999"/>
<path d="M115.045 168.41C114.944 169.017 114.798 169.617 114.743 170.23C114.491 173.006 114.743 175.923 114.743 178.719C114.743 184.48 114.743 190.241 114.743 196.001" fill="white"/>
<path d="M115.045 168.41C114.944 169.017 114.798 169.617 114.743 170.23C114.491 173.006 114.743 175.923 114.743 178.719C114.743 184.48 114.743 190.241 114.743 196.001" stroke="black" stroke-width="3"/>
<path d="M142.306 153.539C142.785 153.922 143.237 154.342 143.743 154.688C146.039 156.259 148.703 157.457 151.138 158.817C156.156 161.618 161.174 164.419 166.192 167.221" fill="white"/>
<path d="M142.306 153.539C142.785 153.922 143.237 154.342 143.743 154.688C146.039 156.259 148.703 157.457 151.138 158.817C156.156 161.618 161.174 164.419 166.192 167.221" stroke="black" stroke-width="3"/>
<path d="M91.5664 148.146C90.9562 148.09 90.3485 147.987 89.7358 147.976C86.957 147.926 84.0752 148.39 81.2955 148.594C75.5681 149.013 69.8407 149.432 64.1133 149.851" fill="white"/>
<path d="M91.5664 148.146C90.9562 148.09 90.3485 147.987 89.7358 147.976C86.957 147.926 84.0752 148.39 81.2955 148.594C75.5681 149.013 69.8407 149.432 64.1133 149.851" stroke="black" stroke-width="0.999999"/>
<path d="M87.6016 97.9065C87.9253 98.4285 88.2112 98.9761 88.5725 99.4726C90.2119 101.724 92.3215 103.747 94.1627 105.846C97.956 110.171 101.749 114.496 105.543 118.821" fill="white"/>
<path d="M87.6016 97.9065C87.9253 98.4285 88.2112 98.9761 88.5725 99.4726C90.2119 101.724 92.3215 103.747 94.1627 105.846C97.956 110.171 101.749 114.496 105.543 118.821" stroke="black" stroke-width="3"/>
<path d="M154.858 104.241C154.381 104.627 153.873 104.978 153.426 105.397C151.396 107.302 149.648 109.647 147.794 111.734C143.972 116.034 140.15 120.333 136.328 124.633" fill="white"/>
<path d="M154.858 104.241C154.381 104.627 153.873 104.978 153.426 105.397C151.396 107.302 149.648 109.647 147.794 111.734C143.972 116.034 140.15 120.333 136.328 124.633" stroke="black" stroke-width="3"/>
<path d="M66.0817 170.464L67.0586 149.543L61.9205 127.713C55.0651 140.016 57.5569 154.447 66.0817 170.464Z" fill="black" stroke="black" stroke-width="0.999999"/>
<path d="M136.37 196.279L114.705 190.013L90.4248 192.442C103.5 200.244 122.092 199.339 136.37 196.279Z" fill="black" stroke="black" stroke-width="0.999999"/>
<path d="M177.691 150.78L163.726 166.348L154.069 187.718C169.174 177.605 174.8 167.066 177.691 150.78Z" fill="black" stroke="black" stroke-width="0.999999"/>
<path d="M208.841 152.36C223.763 152.36 235.86 141.384 235.86 127.843C235.86 114.303 223.763 103.326 208.841 103.326C193.918 103.326 181.821 114.303 181.821 127.843C181.821 141.384 193.918 152.36 208.841 152.36Z" fill="white" stroke="black" stroke-width="0.513485"/>
<path d="M208.841 152.36C223.763 152.36 235.86 141.384 235.86 127.843C235.86 114.303 223.763 103.326 208.841 103.326C193.918 103.326 181.821 114.303 181.821 127.843C181.821 141.384 193.918 152.36 208.841 152.36Z" fill="white" stroke="black" stroke-width="0.513485"/>
<path d="M187.272 113.17L197.18 109.619L204.48 103.905C198.202 104.021 192.348 107.299 187.272 113.17Z" fill="black" stroke="black" stroke-width="0.449229"/>
<path d="M217.489 104.626L223.535 111.7L232.838 116.561C230.088 111.368 224.889 107.379 217.489 104.626Z" fill="black" stroke="black" stroke-width="0.449229"/>
<path d="M207.204 139.212L196.811 129.324L202.974 116.353L217.175 118.224L219.79 132.352L207.204 139.212Z" fill="black" stroke="black" stroke-width="0.449229"/>
<path d="M207.341 139.357C207.296 139.63 207.231 139.899 207.206 140.174C207.092 141.422 207.206 142.732 207.206 143.988C207.206 146.576 207.206 149.164 207.206 151.752" fill="white"/>
<path d="M207.341 139.357C207.296 139.63 207.231 139.899 207.206 140.174C207.092 141.422 207.206 142.732 207.206 143.988C207.206 146.576 207.206 149.164 207.206 151.752" stroke="black" stroke-width="0.449229"/>
<path d="M219.588 132.027C219.803 132.199 220.006 132.387 220.234 132.543C221.265 133.249 222.462 133.787 223.556 134.398C225.81 135.656 228.064 136.914 230.318 138.173" fill="white"/>
<path d="M219.588 132.027C219.803 132.199 220.006 132.387 220.234 132.543C221.265 133.249 222.462 133.787 223.556 134.398C225.81 135.656 228.064 136.914 230.318 138.173" stroke="black" stroke-width="0.449229"/>
<path d="M196.795 129.604C196.521 129.579 196.248 129.533 195.972 129.528C194.724 129.505 193.429 129.714 192.181 129.805C189.608 129.993 187.035 130.182 184.462 130.37" fill="white"/>
<path d="M196.795 129.604C196.521 129.579 196.248 129.533 195.972 129.528C194.724 129.505 193.429 129.714 192.181 129.805C189.608 129.993 187.035 130.182 184.462 130.37" stroke="black" stroke-width="0.449229"/>
<path d="M195.014 106.872C195.159 107.107 195.288 107.353 195.45 107.576C196.186 108.587 197.134 109.496 197.961 110.439C199.665 112.382 201.369 114.325 203.073 116.268" fill="white"/>
<path d="M195.014 106.872C195.159 107.107 195.288 107.353 195.45 107.576C196.186 108.587 197.134 109.496 197.961 110.439C199.665 112.382 201.369 114.325 203.073 116.268" stroke="black" stroke-width="0.449229"/>
<path d="M225.227 109.881C225.012 110.054 224.784 110.212 224.583 110.4C223.671 111.256 222.886 112.309 222.053 113.247C220.336 115.178 218.619 117.11 216.902 119.041" fill="white"/>
<path d="M225.227 109.881C225.012 110.054 224.784 110.212 224.583 110.4C223.671 111.256 222.886 112.309 222.053 113.247C220.336 115.178 218.619 117.11 216.902 119.041" stroke="black" stroke-width="0.449229"/>
<path d="M185.346 139.63L185.785 130.232L183.477 120.425C180.397 125.952 181.517 132.434 185.346 139.63Z" fill="black" stroke="black" stroke-width="0.449229"/>
<path d="M216.922 151.064L207.189 148.249L196.282 149.341C202.156 152.845 210.508 152.439 216.922 151.064Z" fill="black" stroke="black" stroke-width="0.449229"/>
<path d="M235.485 130.787L229.211 137.781L224.873 147.381C231.658 142.838 234.186 138.103 235.485 130.787Z" fill="black" stroke="black" stroke-width="0.449229"/>
<path d="M39.1953 87.1431C54.1177 87.1431 66.2147 76.1665 66.2147 62.6262C66.2147 49.0859 54.1177 38.1094 39.1953 38.1094C24.2728 38.1094 12.1758 49.0859 12.1758 62.6262C12.1758 76.1665 24.2728 87.1431 39.1953 87.1431Z" fill="white" stroke="black" stroke-width="0.513485"/>
<path d="M39.1953 87.1431C54.1177 87.1431 66.2147 76.1665 66.2147 62.6262C66.2147 49.0859 54.1177 38.1094 39.1953 38.1094C24.2728 38.1094 12.1758 49.0859 12.1758 62.6262C12.1758 76.1665 24.2728 87.1431 39.1953 87.1431Z" fill="white" stroke="black" stroke-width="0.513485"/>
<path d="M17.627 47.9526L27.5344 44.402L34.8341 38.6882C28.5562 38.8043 22.7022 42.0824 17.627 47.9526Z" fill="black" stroke="black" stroke-width="0.449229"/>
<path d="M47.8438 39.4092L53.8896 46.4831L63.1921 51.3441C60.4427 46.1509 55.2432 42.1618 47.8438 39.4092Z" fill="black" stroke="black" stroke-width="0.449229"/>
<path d="M37.5582 73.9948L27.1654 64.107L33.3282 51.1362L47.5298 53.0076L50.144 67.1351L37.5582 73.9948Z" fill="black" stroke="black" stroke-width="0.449229"/>
<path d="M37.6968 74.1404C37.6515 74.4128 37.586 74.6826 37.561 74.9576C37.4479 76.2049 37.561 77.5153 37.561 78.7713C37.561 81.3592 37.561 83.9471 37.561 86.535" fill="white"/>
<path d="M37.6968 74.1404C37.6515 74.4128 37.586 74.6826 37.561 74.9576C37.4479 76.2049 37.561 77.5153 37.561 78.7713C37.561 81.3592 37.561 83.9471 37.561 86.535" stroke="black" stroke-width="0.449229"/>
<path d="M49.9434 66.8096C50.1587 66.9817 50.3618 67.1703 50.5892 67.326C51.6207 68.0316 52.8171 68.5698 53.9111 69.1806C56.1653 70.439 58.4195 71.6974 60.6737 72.9559" fill="white"/>
<path d="M49.9434 66.8096C50.1587 66.9817 50.3618 67.1703 50.5892 67.326C51.6207 68.0316 52.8171 68.5698 53.9111 69.1806C56.1653 70.439 58.4195 71.6974 60.6737 72.9559" stroke="black" stroke-width="0.449229"/>
<path d="M27.1492 64.3869C26.875 64.3615 26.6021 64.3155 26.3268 64.3105C25.0785 64.2881 23.7839 64.4966 22.5352 64.588C19.9622 64.7762 17.3893 64.9645 14.8164 65.1528" fill="white"/>
<path d="M27.1492 64.3869C26.875 64.3615 26.6021 64.3155 26.3268 64.3105C25.0785 64.2881 23.7839 64.4966 22.5352 64.588C19.9622 64.7762 17.3893 64.9645 14.8164 65.1528" stroke="black" stroke-width="0.449229"/>
<path d="M25.3682 41.6553C25.5136 41.8898 25.642 42.1358 25.8044 42.3588C26.5408 43.3702 27.4885 44.2791 28.3156 45.2221C30.0197 47.165 31.7237 49.1079 33.4278 51.0508" fill="white"/>
<path d="M25.3682 41.6553C25.5136 41.8898 25.642 42.1358 25.8044 42.3588C26.5408 43.3702 27.4885 44.2791 28.3156 45.2221C30.0197 47.165 31.7237 49.1079 33.4278 51.0508" stroke="black" stroke-width="0.449229"/>
<path d="M55.582 44.6638C55.3676 44.837 55.1396 44.9945 54.9385 45.1831C54.0267 46.0386 53.2417 47.0921 52.4084 48.0296C50.6915 49.9612 48.9747 51.8927 47.2578 53.8243" fill="white"/>
<path d="M55.582 44.6638C55.3676 44.837 55.1396 44.9945 54.9385 45.1831C54.0267 46.0386 53.2417 47.0921 52.4084 48.0296C50.6915 49.9612 48.9747 51.8927 47.2578 53.8243" stroke="black" stroke-width="0.449229"/>
<path d="M15.7017 74.4129L16.1405 65.0147L13.8323 55.208C10.7527 60.7347 11.8721 67.2176 15.7017 74.4129Z" fill="black" stroke="black" stroke-width="0.449229"/>
<path d="M47.2768 85.8471L37.5439 83.0325L26.6367 84.1238C32.5103 87.6286 40.8627 87.2221 47.2768 85.8471Z" fill="black" stroke="black" stroke-width="0.449229"/>
<path d="M65.8402 65.5698L59.5665 72.5635L55.2285 82.1636C62.0138 77.6205 64.5415 72.8863 65.8402 65.5698Z" fill="black" stroke="black" stroke-width="0.449229"/>
<path d="M195.816 81.9423C206.716 81.9423 215.552 73.9249 215.552 64.035C215.552 54.1451 206.716 46.1277 195.816 46.1277C184.917 46.1277 176.081 54.1451 176.081 64.035C176.081 73.9249 184.917 81.9423 195.816 81.9423Z" fill="white" stroke="black" stroke-width="0.513485"/>
<path d="M195.816 81.9423C206.716 81.9423 215.552 73.9249 215.552 64.035C215.552 54.1451 206.716 46.1277 195.816 46.1277C184.917 46.1277 176.081 54.1451 176.081 64.035C176.081 73.9249 184.917 81.9423 195.816 81.9423Z" fill="white" stroke="black" stroke-width="0.513485"/>
<path d="M180.062 53.3171L187.299 50.7237L192.631 46.5503C188.045 46.6351 183.77 49.0294 180.062 53.3171Z" fill="black" stroke="black" stroke-width="0.449229"/>
<path d="M202.134 47.0769L206.55 52.2437L213.344 55.7942C211.336 52.0011 207.538 49.0875 202.134 47.0769Z" fill="black" stroke="black" stroke-width="0.449229"/>
<path d="M194.621 72.3387L187.03 65.1165L191.531 55.6426L201.904 57.0095L203.813 67.3283L194.621 72.3387Z" fill="black" stroke="black" stroke-width="0.449229"/>
<path d="M194.722 72.4448C194.689 72.6438 194.641 72.8408 194.623 73.0417C194.54 73.9528 194.623 74.9099 194.623 75.8273C194.623 77.7175 194.623 79.6077 194.623 81.498" fill="white"/>
<path d="M194.722 72.4448C194.689 72.6438 194.641 72.8408 194.623 73.0417C194.54 73.9528 194.623 74.9099 194.623 75.8273C194.623 77.7175 194.623 79.6077 194.623 81.498" stroke="black" stroke-width="0.449229"/>
<path d="M203.667 67.0903C203.824 67.216 203.973 67.3538 204.139 67.4675C204.892 67.9829 205.766 68.376 206.565 68.8221C208.212 69.7413 209.858 70.6605 211.505 71.5797" fill="white"/>
<path d="M203.667 67.0903C203.824 67.216 203.973 67.3538 204.139 67.4675C204.892 67.9829 205.766 68.376 206.565 68.8221C208.212 69.7413 209.858 70.6605 211.505 71.5797" stroke="black" stroke-width="0.449229"/>
<path d="M187.019 65.3209C186.818 65.3024 186.619 65.2688 186.418 65.2651C185.506 65.2488 184.561 65.4011 183.649 65.4678C181.769 65.6053 179.89 65.7428 178.011 65.8804" fill="white"/>
<path d="M187.019 65.3209C186.818 65.3024 186.619 65.2688 186.418 65.2651C185.506 65.2488 184.561 65.4011 183.649 65.4678C181.769 65.6053 179.89 65.7428 178.011 65.8804" stroke="black" stroke-width="0.449229"/>
<path d="M185.718 48.7175C185.824 48.8888 185.918 49.0685 186.036 49.2314C186.574 49.9701 187.266 50.634 187.871 51.3227C189.115 52.7419 190.36 54.161 191.605 55.5801" fill="white"/>
<path d="M185.718 48.7175C185.824 48.8888 185.918 49.0685 186.036 49.2314C186.574 49.9701 187.266 50.634 187.871 51.3227C189.115 52.7419 190.36 54.161 191.605 55.5801" stroke="black" stroke-width="0.449229"/>
<path d="M207.786 50.915C207.629 51.0415 207.463 51.1566 207.316 51.2943C206.65 51.9192 206.077 52.6887 205.468 53.3735C204.214 54.7843 202.96 56.1951 201.706 57.6059" fill="white"/>
<path d="M207.786 50.915C207.629 51.0415 207.463 51.1566 207.316 51.2943C206.65 51.9192 206.077 52.6887 205.468 53.3735C204.214 54.7843 202.96 56.1951 201.706 57.6059" stroke="black" stroke-width="0.449229"/>
<path d="M178.656 72.6438L178.977 65.7794L177.291 58.6165C175.042 62.6532 175.859 67.3883 178.656 72.6438Z" fill="black" stroke="black" stroke-width="0.449229"/>
<path d="M201.719 80.9955L194.61 78.9397L186.644 79.7368C190.934 82.2968 197.034 81.9998 201.719 80.9955Z" fill="black" stroke="black" stroke-width="0.449229"/>
<path d="M215.278 66.1851L210.696 71.2933L207.527 78.3053C212.483 74.987 214.33 71.529 215.278 66.1851Z" fill="black" stroke="black" stroke-width="0.449229"/>
<path d="M31.8788 204.888C42.7783 204.888 51.614 196.871 51.614 186.981C51.614 177.091 42.7783 169.073 31.8788 169.073C20.9793 169.073 12.1436 177.091 12.1436 186.981C12.1436 196.871 20.9793 204.888 31.8788 204.888Z" fill="white" stroke="black" stroke-width="0.513485"/>
<path d="M31.8788 204.888C42.7783 204.888 51.614 196.871 51.614 186.981C51.614 177.091 42.7783 169.073 31.8788 169.073C20.9793 169.073 12.1436 177.091 12.1436 186.981C12.1436 196.871 20.9793 204.888 31.8788 204.888Z" fill="white" stroke="black" stroke-width="0.513485"/>
<path d="M16.125 176.263L23.3615 173.669L28.6933 169.496C24.1078 169.581 19.832 171.975 16.125 176.263Z" fill="black" stroke="black" stroke-width="0.449229"/>
<path d="M38.1963 170.023L42.6123 175.19L49.4069 178.74C47.3987 174.947 43.6009 172.033 38.1963 170.023Z" fill="black" stroke="black" stroke-width="0.449229"/>
<path d="M30.683 195.284L23.0921 188.062L27.5934 178.588L37.9664 179.955L39.8759 190.274L30.683 195.284Z" fill="black" stroke="black" stroke-width="0.449229"/>
<path d="M30.7843 195.39C30.7513 195.589 30.7034 195.786 30.6851 195.987C30.6026 196.898 30.6851 197.855 30.6851 198.773C30.6851 200.663 30.6851 202.553 30.6851 204.444" fill="white"/>
<path d="M30.7843 195.39C30.7513 195.589 30.7034 195.786 30.6851 195.987C30.6026 196.898 30.6851 197.855 30.6851 198.773C30.6851 200.663 30.6851 202.553 30.6851 204.444" stroke="black" stroke-width="0.449229"/>
<path d="M39.7295 190.036C39.8867 190.162 40.0351 190.3 40.2012 190.413C40.9546 190.929 41.8285 191.322 42.6276 191.768C44.2741 192.687 45.9206 193.606 47.567 194.525" fill="white"/>
<path d="M39.7295 190.036C39.8867 190.162 40.0351 190.3 40.2012 190.413C40.9546 190.929 41.8285 191.322 42.6276 191.768C44.2741 192.687 45.9206 193.606 47.567 194.525" stroke="black" stroke-width="0.449229"/>
<path d="M23.0802 188.267C22.88 188.248 22.6806 188.215 22.4796 188.211C21.5678 188.195 20.6222 188.347 19.7101 188.414C17.8308 188.551 15.9515 188.689 14.0723 188.826" fill="white"/>
<path d="M23.0802 188.267C22.88 188.248 22.6806 188.215 22.4796 188.211C21.5678 188.195 20.6222 188.347 19.7101 188.414C17.8308 188.551 15.9515 188.689 14.0723 188.826" stroke="black" stroke-width="0.449229"/>
<path d="M21.7793 171.663C21.8855 171.835 21.9793 172.014 22.0979 172.177C22.6358 172.916 23.328 173.58 23.9321 174.269C25.1768 175.688 26.4215 177.107 27.6661 178.526" fill="white"/>
<path d="M21.7793 171.663C21.8855 171.835 21.9793 172.014 22.0979 172.177C22.6358 172.916 23.328 173.58 23.9321 174.269C25.1768 175.688 26.4215 177.107 27.6661 178.526" stroke="black" stroke-width="0.449229"/>
<path d="M43.8486 173.861C43.692 173.987 43.5255 174.102 43.3786 174.24C42.7126 174.865 42.1392 175.634 41.5306 176.319C40.2766 177.73 39.0226 179.141 37.7686 180.551" fill="white"/>
<path d="M43.8486 173.861C43.692 173.987 43.5255 174.102 43.3786 174.24C42.7126 174.865 42.1392 175.634 41.5306 176.319C40.2766 177.73 39.0226 179.141 37.7686 180.551" stroke="black" stroke-width="0.449229"/>
<path d="M14.719 195.59L15.0395 188.725L13.3536 181.562C11.1042 185.599 11.9218 190.334 14.719 195.59Z" fill="black" stroke="black" stroke-width="0.449229"/>
<path d="M37.7817 203.941L30.6728 201.885L22.7061 202.682C26.9962 205.242 33.0968 204.945 37.7817 203.941Z" fill="black" stroke="black" stroke-width="0.449229"/>
<path d="M51.3407 189.131L46.7584 194.239L43.5898 201.251C48.5459 197.933 50.3921 194.475 51.3407 189.131Z" fill="black" stroke="black" stroke-width="0.449229"/>
<path d="M74.7598 132.817C76.4062 124.067 78.4041 117.195 81.4865 111.514C87.942 101.686 91.7542 98.1287 98.5839 93.2908C102.884 90.854 108.33 88.5941 119.956 87.2878C140.69 87.4957 140.689 93.3039 147.953 97.1499C140.279 92.7656 128.738 91.1712 119.315 92.4332C117.431 92.6855 94.4349 97.9265 83.4726 133.939C81.1877 133.074 74.8748 132.278 74.7598 132.817Z" fill="#F03A62" stroke="black" stroke-width="0.999999"/>
<path d="M77.2119 167.177C85.1946 167.177 91.6659 159.414 91.6659 149.837C91.6659 140.26 85.1946 132.496 77.2119 132.496C69.2291 132.496 62.7578 140.26 62.7578 149.837C62.7578 159.414 69.2291 167.177 77.2119 167.177Z" fill="#F03A62" stroke="black" stroke-width="0.952441"/>
<path d="M73.1327 163.895C78.8377 163.895 83.4626 157.559 83.4626 149.742C83.4626 141.926 78.8377 135.59 73.1327 135.59C67.4276 135.59 62.8027 141.926 62.8027 149.742C62.8027 157.559 67.4276 163.895 73.1327 163.895Z" fill="#F5849D" stroke="black" stroke-width="0.857953"/>
<path d="M123.162 151.159C128.581 151.159 132.975 145.048 132.975 137.509C132.975 129.971 128.581 123.86 123.162 123.86C117.742 123.86 113.349 129.971 113.349 137.509C113.349 145.048 117.742 151.159 123.162 151.159Z" fill="white" stroke="white" stroke-width="1.04359"/>
<path d="M154.667 146.453C160.027 145.648 163.471 138.952 162.359 131.497C161.248 124.042 156.001 118.65 150.642 119.454C145.282 120.258 141.838 126.954 142.949 134.41C144.061 141.865 149.307 147.257 154.667 146.453Z" fill="white" stroke="black" stroke-width="1.04359"/>
<path d="M87.0359 167.479C84.0593 171.364 73.9338 185.64 75.5507 195.07C76.8924 200.225 83.0196 206.347 88.0938 205.353C88.0153 202.512 88.5429 199.789 88.2447 198.379C87.1341 198.587 83.0647 197.11 82.6532 194.464C80.5448 185.238 95.8986 171.361 93.6851 173.24C93.1352 170.354 89.8864 166.805 87.0359 167.479Z" fill="#0F0F0F" stroke="black" stroke-width="0.999999"/>
<path d="M98.7901 211.468C98.7901 212.171 92.4028 213.933 90.5619 210.611C86.1152 205.636 86.7596 195.975 90.6688 190.565C91.8587 188.12 94.6192 188.085 96.4392 188.635C99.3656 187.194 101.457 184.169 104.56 183.168C107.851 182.107 112.56 181.253 114.926 182.847C118.831 184.441 116.74 187.27 117.277 189.171C121.482 190.673 125.473 192.476 124.864 196.997C125.214 198.586 123.338 199.981 123.261 201.606C124.227 202.955 125.936 204.709 124.543 206.859C124.043 209.353 120.969 210.682 120.482 211.254C120.24 212.22 121.621 213.232 121.23 214.148C120.252 216.442 117.194 217.629 114.712 217.793C109.016 218.169 98.7901 211.468 98.7901 211.468Z" fill="#F9F9F9" stroke="black" stroke-width="0.999999"/>
<path d="M98.8943 186.849C98.286 187.055 98.0815 187.816 97.6853 188.213C97.5002 188.399 97.2417 188.426 97.0808 188.668C97.0183 188.762 97.0093 188.891 96.9297 188.971C96.8941 189.007 96.8011 188.926 96.7786 188.971C96.7335 189.061 96.8236 189.184 96.7786 189.274C96.6577 189.517 96.3251 189.653 96.1741 189.881C95.6124 190.726 95.2815 191.506 94.9651 192.458C94.8195 192.896 94.9651 193.651 94.9651 194.125" fill="#F9F9F9"/>
<path d="M98.8943 186.849C98.286 187.055 98.0815 187.816 97.6853 188.213C97.5002 188.399 97.2417 188.426 97.0808 188.668C97.0183 188.762 97.0093 188.891 96.9297 188.971C96.8941 189.007 96.8011 188.926 96.7786 188.971C96.7335 189.061 96.8236 189.184 96.7786 189.274C96.6577 189.517 96.3251 189.653 96.1741 189.881C95.6124 190.726 95.2815 191.506 94.9651 192.458C94.8195 192.896 94.9651 193.651 94.9651 194.125" stroke="black" stroke-width="0.999999"/>
<path d="M99.2761 212.201C98.8227 211.645 98.3819 211.078 97.916 210.533C97.7061 210.287 97.5396 210.004 97.3115 209.775C97.2759 209.739 97.196 209.811 97.1604 209.775C97.0891 209.704 97.1848 209.57 97.1604 209.472C97.0629 209.081 96.817 208.742 96.707 208.411C96.4945 207.771 96.6512 207.142 96.1025 206.592" fill="#F9F9F9"/>
<path d="M99.2761 212.201C98.8227 211.645 98.3819 211.078 97.916 210.533C97.7061 210.287 97.5396 210.004 97.3115 209.775C97.2759 209.739 97.196 209.811 97.1604 209.775C97.0891 209.704 97.1848 209.57 97.1604 209.472C97.0629 209.081 96.817 208.742 96.707 208.411C96.4945 207.771 96.6512 207.142 96.1025 206.592" stroke="black" stroke-width="0.999999"/>
<path d="M124.929 205.985C124.375 206.248 124.661 206.978 124.476 207.349C124.425 207.451 124.224 207.4 124.174 207.501C124.047 207.755 124.147 208.161 124.022 208.411C123.932 208.593 123.66 208.684 123.569 208.865C123.524 208.956 123.614 209.078 123.569 209.169C123.462 209.383 123.272 209.394 123.116 209.472C122.838 209.611 123.092 209.787 122.814 209.927C122.768 209.949 122.707 209.904 122.662 209.927C122.562 209.977 122.259 210.28 122.209 210.381C122.187 210.427 122.254 210.51 122.209 210.533C122.119 210.578 121.997 210.488 121.907 210.533C121.862 210.556 121.942 210.649 121.907 210.685C121.792 210.8 121.31 210.757 121.151 210.836C120.595 211.115 120.045 211.315 119.489 211.594C119.181 211.749 117.221 211.594 116.92 211.594C116.756 211.594 114.228 211.622 114.2 211.594C114.128 211.523 114.2 211.392 114.2 211.291" fill="#F9F9F9"/>
<path d="M124.929 205.985C124.375 206.248 124.661 206.978 124.476 207.349C124.425 207.451 124.224 207.4 124.174 207.501C124.047 207.755 124.147 208.161 124.022 208.411C123.932 208.593 123.66 208.684 123.569 208.865C123.524 208.956 123.614 209.078 123.569 209.169C123.462 209.383 123.272 209.394 123.116 209.472C122.838 209.611 123.092 209.787 122.814 209.927C122.768 209.949 122.707 209.904 122.662 209.927C122.562 209.977 122.259 210.28 122.209 210.381C122.187 210.427 122.254 210.51 122.209 210.533C122.119 210.578 121.997 210.488 121.907 210.533C121.862 210.556 121.942 210.649 121.907 210.685C121.792 210.8 121.31 210.757 121.151 210.836C120.595 211.115 120.045 211.315 119.489 211.594C119.181 211.749 117.221 211.594 116.92 211.594C116.756 211.594 114.228 211.622 114.2 211.594C114.128 211.523 114.2 211.392 114.2 211.291" stroke="black" stroke-width="0.999999"/>
<path d="M124.816 197.344C124.543 197.894 125.01 198.732 124.816 199.315C124.764 199.472 124.589 199.619 124.514 199.77C124.454 199.891 124.575 200.103 124.514 200.225C124.2 200.855 124.524 200.063 124.212 200.376C124.124 200.464 124.124 200.855 124.061 200.983C124 201.105 122.977 201.96 122.852 202.044C122.692 202.151 122.231 202.105 122.096 202.195C122.002 202.258 122.025 202.419 121.945 202.499C121.887 202.556 121.221 202.589 121.038 202.65C120.903 202.695 120.863 202.889 120.736 202.953C120.485 203.079 119.956 202.907 119.678 202.953C118.021 203.23 116.238 203.105 114.54 203.105" fill="#F9F9F9"/>
<path d="M124.816 197.344C124.543 197.894 125.01 198.732 124.816 199.315C124.764 199.472 124.589 199.619 124.514 199.77C124.454 199.891 124.575 200.103 124.514 200.225C124.2 200.855 124.524 200.063 124.212 200.376C124.124 200.464 124.124 200.855 124.061 200.983C124 201.105 122.977 201.96 122.852 202.044C122.692 202.151 122.231 202.105 122.096 202.195C122.002 202.258 122.025 202.419 121.945 202.499C121.887 202.556 121.221 202.589 121.038 202.65C120.903 202.695 120.863 202.889 120.736 202.953C120.485 203.079 119.956 202.907 119.678 202.953C118.021 203.23 116.238 203.105 114.54 203.105" stroke="black" stroke-width="0.999999"/>
<path d="M118.62 189.612C118.084 189.377 117.446 189.553 116.923 189.291C116.543 189.1 116.671 189.308 116.167 189.139C116.119 189.123 115.936 189.345 115.9 189.309C115.762 189.171 114.414 189.402 114.238 189.461C114.142 189.493 114.026 189.416 113.935 189.461C113.872 189.493 113.835 189.562 113.784 189.612C113.684 189.663 113.587 189.722 113.482 189.764C113.339 190.14 113.075 189.85 112.878 189.916C112.569 190.019 112.381 190.24 112.122 190.37C112.032 190.416 111.891 190.299 111.82 190.37C111.784 190.406 111.855 190.486 111.82 190.522C111.749 190.593 111.618 190.522 111.518 190.522C110.982 190.522 110.377 190.597 109.855 190.522C109.371 190.453 108.945 190.219 108.495 190.219" fill="#F9F9F9"/>
<path d="M118.62 189.612C118.084 189.377 117.446 189.553 116.923 189.291C116.543 189.1 116.671 189.308 116.167 189.139C116.119 189.123 115.936 189.345 115.9 189.309C115.762 189.171 114.414 189.402 114.238 189.461C114.142 189.493 114.026 189.416 113.935 189.461C113.872 189.493 113.835 189.562 113.784 189.612C113.684 189.663 113.587 189.722 113.482 189.764C113.339 190.14 113.075 189.85 112.878 189.916C112.569 190.019 112.381 190.24 112.122 190.37C112.032 190.416 111.891 190.299 111.82 190.37C111.784 190.406 111.855 190.486 111.82 190.522C111.749 190.593 111.618 190.522 111.518 190.522C110.982 190.522 110.377 190.597 109.855 190.522C109.371 190.453 108.945 190.219 108.495 190.219" stroke="black" stroke-width="0.999999"/>
<path d="M109.591 187.907C109.843 188.536 110.049 189.129 110.346 189.726C110.391 189.817 110.301 189.939 110.346 190.03C110.505 190.348 110.646 190.026 110.8 190.181C110.835 190.217 110.8 190.282 110.8 190.333C110.901 190.383 111.001 190.434 111.102 190.484" fill="#F9F9F9"/>
<path d="M109.591 187.907C109.843 188.536 110.049 189.129 110.346 189.726C110.391 189.817 110.301 189.939 110.346 190.03C110.505 190.348 110.646 190.026 110.8 190.181C110.835 190.217 110.8 190.282 110.8 190.333C110.901 190.383 111.001 190.434 111.102 190.484" stroke="black" stroke-width="0.999999"/>
<path d="M114.35 135.322C122.255 128.91 127.435 133.207 127.822 148.644C125.059 150.611 121.654 152.303 117.146 147.147C113.58 142.955 114.008 137.673 114.35 135.322Z" fill="black" stroke="black" stroke-width="0.999999"/>
<path d="M142.902 132.396C149.918 124.662 155.954 128.512 158.769 144.074C156.277 146.476 153.094 147.504 147.595 143.923C143.318 140.242 144.03 136.757 142.902 132.396Z" fill="black" stroke="black" stroke-width="0.999999"/>
<path d="M116.322 140.135C116.617 140.135 116.857 139.559 116.857 138.849C116.857 138.138 116.617 137.562 116.322 137.562C116.027 137.562 115.788 138.138 115.788 138.849C115.788 139.559 116.027 140.135 116.322 140.135Z" fill="white" stroke="white" stroke-width="0.999999"/>
<path d="M146.617 136.062C147.237 136.062 147.739 135.558 147.739 134.936C147.739 134.315 147.237 133.811 146.617 133.811C145.997 133.811 145.495 134.315 145.495 134.936C145.495 135.558 145.997 136.062 146.617 136.062Z" fill="white" stroke="white" stroke-width="0.999999"/>
<path d="M132.523 161.264C133.048 161.855 134.408 164.546 134.941 164.902C135.109 165.014 135.378 164.79 135.546 164.902C135.733 165.028 135.689 165.349 135.848 165.509C136.233 165.894 136.872 165.649 137.359 165.812C137.98 166.019 138.235 166.562 138.871 166.721C139.066 166.77 139.284 166.657 139.475 166.721C140.418 167.037 139.374 166.923 139.777 167.328C140.642 168.195 145.829 167.476 146.729 167.025C147.373 166.701 148.635 165.229 148.845 164.599C149.025 164.055 148.959 163.344 149.147 162.78C148.965 162.231 149.636 162.216 149.751 161.87C149.955 161.257 149.868 160.844 150.356 160.354" stroke="white" stroke-width="0.999999"/>
<path d="M131.919 166.115C134.914 167.607 137.727 169.494 141.288 169.753C144.879 169.184 146.448 167.548 148.845 166.115C148.845 166.115 144.08 169.644 141.288 169.753C137.942 169.884 131.919 166.115 131.919 166.115Z" fill="black"/>
<path d="M141.288 169.753C137.727 169.494 134.914 167.607 131.919 166.115C131.919 166.115 137.942 169.884 141.288 169.753ZM141.288 169.753C144.879 169.184 146.448 167.548 148.845 166.115C148.845 166.115 144.08 169.644 141.288 169.753Z" stroke="black" stroke-width="3"/>
</svg>
